<?xml version="1.0" encoding="utf-8"?>
<!-- Generator: Adobe Illustrator 25.2.1, SVG Export Plug-In . SVG Version: 6.00 Build 0)  -->
<svg version="1.1" id="레이어_1" xmlns:v="https://vecta.io/nano"
	 xmlns="http://www.w3.org/2000/svg" xmlns:xlink="http://www.w3.org/1999/xlink" x="0px" y="0px" viewBox="0 0 64 64"
	 style="enable-background:new 0 0 64 64;" xml:space="preserve">
<style type="text/css">
	.st0{fill:#DBCDF9;}
	.st1{fill:#A28BD4;}
	.st2{fill-rule:evenodd;clip-rule:evenodd;fill:#013463;}
	.st3{fill:#013463;}
	.st4{opacity:0;fill:none;stroke:#DBCDF9;stroke-width:0.25;stroke-miterlimit:10;}
</style>
<path class="st0" d="M61,22.9c0.6,0.6,0.7,1.7,0.2,2.4c-9.5,13.6-21.3,25.5-34.8,35.1l-1.1,0.8c-0.8,0.6-1.9,0.5-2.5-0.2L18,56.2
	c2.9-3,2.8-7.7-0.2-10.6c-2.9-2.8-7.5-2.8-10.5,0l-4.4-4.4c-0.8-0.8-0.7-2.2,0.2-2.9l1.1-0.8c13.2-9.4,24.7-21,34-34.3
	c0.6-0.8,1.7-1,2.5-0.4C40.9,2.8,41,2.9,41,2.9l4.5,4.5c-2.9,3-2.8,7.7,0.2,10.6c2.9,2.8,7.5,2.8,10.4,0L61,22.9L61,22.9z"/>
<path class="st1" d="M63.2,24.3L46,46L23.7,62.9l-4.3-4.3l-1.5-1.9l1.5-2.2l0.5-2.2l-0.3-2.4l-0.9-2.2l-1.5-1.8l-1.8-1.2L13.6,44
	h-2.4l-2.5,0.9l-1.5,1.3l-3.6-4.3l5.8-0.9c18-2.7,35.1-10,49.5-21.1L63.2,24.3L63.2,24.3z"/>
<g>
	<path class="st2" d="M15.8,56.4c0-0.6,0.3-1.2,0.7-1.7l0,0c2-2,1.9-5.3-0.2-7.3c-2-1.9-5.1-1.9-7.1,0l0,0c-0.9,0.9-2.4,0.9-3.4,0
		c0,0,0,0,0,0l-4.6-4.6c-1.7-1.7-1.7-4.4,0-6.1c0.2-0.2,0.3-0.3,0.5-0.5l1.1-0.8l1.4,1.9l-1.1,0.8c-1,0.7-1.1,2.1-0.2,2.9l4.6,4.6
		l0,0c2.9-2.9,7.7-2.9,10.6,0c2.9,2.9,2.9,7.7,0,10.6l0,0l4.6,4.6c0.7,0.7,1.8,0.8,2.5,0.2l1.1-0.8c13.5-9.6,25.3-21.5,34.8-35.1
		c0.5-0.7,0.4-1.8-0.2-2.4l-4.8-4.8l-0.1,0.1c-3,2.9-7.7,2.9-10.6-0.1c-2.9-2.9-2.9-7.6,0-10.5l0.1-0.1L41,2.9
		c-0.7-0.7-1.9-0.7-2.6,0c-0.1,0.1-0.1,0.2-0.2,0.2C29,16.5,17.5,28.1,4.3,37.5l-1.4-1.9c13-9.3,24.3-20.7,33.4-33.7
		c1.3-1.9,4-2.4,5.9-1c0.2,0.1,0.4,0.3,0.6,0.5l4.5,4.5c0.9,0.9,0.9,2.4,0,3.4c0,0,0,0,0,0l0,0c-2,2-1.9,5.3,0.2,7.3
		c2,1.9,5.1,1.9,7.1,0l0,0c0.9-0.9,2.4-1,3.4,0c0,0,0,0,0,0l4.8,4.8c1.5,1.5,1.7,3.8,0.5,5.4c-9.7,13.8-21.7,25.9-35.4,35.7
		l-1.1,0.8c-1.7,1.2-4.1,1-5.6-0.5l-4.6-4.6C16.1,57.7,15.8,57,15.8,56.4L15.8,56.4z"/>
	<g>
		<path id="A" class="st2" d="M32,11.3l1.1,1.1c0.5,0.5,0.5,1.2,0,1.7s-1.2,0.5-1.7,0l-1.1-1.1c-0.5-0.5-0.5-1.2,0-1.7
			S31.5,10.8,32,11.3z"/>
	</g>
	<g>
		<path id="A_1_" class="st2" d="M36.4,15.7l1.1,1.1c0.5,0.5,0.5,1.2,0,1.7c-0.5,0.5-1.2,0.5-1.7,0l-1.1-1.1c-0.5-0.5-0.5-1.2,0-1.7
			C35.2,15.2,35.9,15.2,36.4,15.7z"/>
	</g>
	<g>
		<path id="B" class="st2" d="M41.9,22.8c-0.5,0.5-1.2,0.5-1.7,0c0,0,0,0,0,0l-1.3-1.3c-0.5-0.5-0.5-1.2,0-1.7
			c0.5-0.5,1.2-0.5,1.7,0l1.3,1.3C42.3,21.6,42.3,22.4,41.9,22.8C41.9,22.8,41.9,22.8,41.9,22.8z"/>
	</g>
	<g>
		<path id="B_1_" class="st2" d="M46.3,27.2c-0.5,0.5-1.2,0.5-1.7,0c0,0,0,0,0,0L43.4,26c-0.5-0.5-0.5-1.2,0-1.7
			c0.5-0.5,1.2-0.5,1.7,0l1.3,1.3C46.8,26,46.8,26.8,46.3,27.2C46.3,27.2,46.3,27.2,46.3,27.2z"/>
	</g>
	<path class="st2" d="M49.5,28.7l1.1,1.1c0.5,0.5,0.5,1.2,0,1.7c-0.5,0.5-1.2,0.5-1.7,0l-1.1-1.1c-0.5-0.5-0.5-1.2,0-1.7
		C48.2,28.3,49,28.3,49.5,28.7L49.5,28.7z"/>
	<g>
		<path id="A_2_" class="st2" d="M53.9,33.1l1.1,1.1c0.5,0.5,0.5,1.2,0,1.7s-1.2,0.5-1.7,0l-1.1-1.1c-0.5-0.5-0.5-1.2,0-1.7
			S53.4,32.7,53.9,33.1z"/>
	</g>
</g>
<ellipse class="st3" cx="41.7" cy="36.6" rx="2.9" ry="4.1"/>
<path class="st3" d="M32.9,26.8h-5.4c-5.6,0-10.1,4.5-10.1,10.1v0c0,3,2.4,5.4,5.4,5.4h14.8c3,0,5.4-2.4,5.4-5.4v0
	C43,31.3,38.5,26.8,32.9,26.8z"/>
<g>
	<path class="st4" d="M37.8,40.1H27.5c-1.4,0-2.5-1.1-2.5-2.4v-2c0-1.3,1.1-2.4,2.5-2.3l10.3,0.3c1.2,0,2.2,1.1,2.2,2.3v1.9
		C40.1,39.1,39.1,40.1,37.8,40.1z"/>
	<g>
		<g>
			<path class="st0" d="M30.8,36.6c0,0.9-0.8,1.6-1.7,1.6c-0.9,0-1.7-0.7-1.7-1.6c0-0.9,0.8-1.6,1.7-1.6
				C30.1,34.9,30.8,35.7,30.8,36.6z"/>
			<path class="st0" d="M37.8,36.7c0,0.9-0.7,1.5-1.6,1.5c-0.9,0-1.6-0.7-1.6-1.6c0-0.9,0.7-1.5,1.6-1.5
				C37.1,35.1,37.8,35.8,37.8,36.7z"/>
		</g>
	</g>
</g>
<ellipse class="st3" cx="18.9" cy="36.6" rx="2.9" ry="4.1"/>
<ellipse class="st3" cx="16.6" cy="36.6" rx="1.3" ry="1.8"/>
</svg>
