<svg xmlns="http://www.w3.org/2000/svg" xmlns:xlink="http://www.w3.org/1999/xlink" width="437" height="112" fill="none"  xmlns:v="https://vecta.io/nano"><g clip-path="url(#K)"><path fill="url(#A)" d="M0 0h437v112H0z"/><g style="mix-blend-mode:screen" opacity=".3"><circle cx="49.342" cy="39.024" r="41.961" transform="rotate(45 49.342 39.024)" fill="url(#B)"/></g><g style="mix-blend-mode:screen" opacity=".3"><circle cx="92.05" cy="3.732" r="28.095" transform="rotate(45 92.05 3.732)" fill="url(#C)"/></g><g style="mix-blend-mode:screen" opacity=".6"><circle cx="352.864" cy="116.863" r="57" transform="rotate(210 352.864 116.863)" fill="url(#D)"/></g></g><defs><linearGradient id="A" x1="218.5" y1="0" x2="218.5" y2="112" xlink:href="#L"><stop stop-color="#a4defb"/><stop offset="1" stop-color="#e3e8f7"/></linearGradient><linearGradient id="B" x1="49.342" y1="-2.937" x2="49.342" y2="80.985" xlink:href="#L"><stop stop-color="#fff"/><stop offset="1" stop-color="#fff" stop-opacity="0"/></linearGradient><linearGradient id="C" x1="92.05" y1="-24.363" x2="92.05" y2="31.827" xlink:href="#L"><stop stop-color="#fff"/><stop offset="1" stop-color="#fff" stop-opacity="0"/></linearGradient><linearGradient id="D" x1="352.864" y1="59.864" x2="352.864" y2="173.863" xlink:href="#L"><stop stop-color="#fff"/><stop offset="1" stop-color="#fff" stop-opacity="0"/></linearGradient><linearGradient id="E" x1="175.31" y1="26.492" x2="200.555" y2="-17.494" xlink:href="#L"><stop/><stop offset=".47" stop-opacity="0"/></linearGradient><linearGradient id="F" x1="7531.69" y1="5465.76" x2="8140.95" y2="4854.81" xlink:href="#L"><stop/><stop offset=".47" stop-opacity="0"/></linearGradient><linearGradient id="G" x1="9747.88" y1="6256.13" x2="10351.3" y2="5562.39" xlink:href="#L"><stop/><stop offset=".47" stop-opacity="0"/></linearGradient><linearGradient id="H" x1="15683.3" y1="8040.05" x2="16322.3" y2="7096.16" xlink:href="#L"><stop/><stop offset=".47" stop-opacity="0"/></linearGradient><linearGradient id="I" x1="11232.2" y1="8568.14" x2="11841.4" y2="7957.19" xlink:href="#L"><stop/><stop offset=".47" stop-opacity="0"/></linearGradient><linearGradient id="J" x1="12026.4" y1="8014.95" x2="12629.8" y2="7321.11" xlink:href="#L"><stop/><stop offset=".47" stop-opacity="0"/></linearGradient><clipPath id="K"><path fill="#fff" d="M0 0h437v112H0z"/></clipPath><linearGradient id="L" gradientUnits="userSpaceOnUse"/></defs>

<text x="160" y="80" style="fill:rgb(0,0,0);  font-size:40pt; font-style:italic;">EPIC</text>
</svg>